#!OML:ASF H:\Terrain\Patient Classification 1\Takeo\Monday\TakeoMonday.ASF
:FULLY-SPECIFIED
:DEGREES
1677
root 8.94904 17.7811 0.516551 -8.50146 37.764 -6.00296
lowerback 8.9833 0.878632 4.14754
upperback 3.05104 1.50085 -2.87458
thorax -1.677 0.792925 -5.48698
lowerneck -12.0068 -4.01484 -6.73909
upperneck -1.54767 -4.44387 3.39251
head 1.83845 -2.08198 2.03845
rclavicle 2.21645e-014 -7.95139e-015
rhumerus 43.6279 18.9035 -30.28
rradius 98.1213
rwrist 0.668198
rhand -38.0729 36.7331
rfingers 7.12502
rthumb -11.1096 7.04714
lclavicle 2.21645e-014 -7.95139e-015
lhumerus -35.1354 5.02983 82.5945
lradius 38.8095
lwrist 31.3493
lhand -29.0485 15.8472
lfingers 7.12502
lthumb -2.39858 45.8134
rfemur -0.691877 -10.944 21.5794
rtibia 18.1659
rfoot -15.2455 -26.3745
rtoes 8.72883
lfemur -0.720234 -10.2562 -15.7919
ltibia 25.0526
lfoot -14.9044 10.6704
ltoes -15.3424
1678
root 8.93256 17.7786 0.484953 -8.00097 37.9405 -5.66339
lowerback 9.17724 0.895335 3.84515
upperback 3.26476 1.50712 -2.84498
thorax -1.57092 0.804107 -5.28548
lowerneck -14.2462 -3.64552 -8.99351
upperneck 0.983591 -3.58582 5.93371
head 2.83284 -1.56945 3.0222
rclavicle 5.86415e-014 -4.92986e-014
rhumerus 43.6969 20.1209 -30.204
rradius 98.0223
rwrist 0.939571
rhand -38.4545 36.2872
rfingers 7.12502
rthumb -11.4776 6.6214
lclavicle 5.86415e-014 -4.92986e-014
lhumerus -34.9185 4.799 82.8597
lradius 39.1138
lwrist 31.2837
lhand -28.8459 15.9233
lfingers 7.12502
lthumb -2.20289 45.8917
rfemur -1.42394 -10.9548 21.3286
rtibia 18.7133
rfoot -15.5861 -26.3137
rtoes 9.44702
lfemur -1.31399 -10.3207 -16.0436
ltibia 25.26
lfoot -14.9659 10.5547
ltoes -15.1238
1679
root 8.91445 17.7771 0.447612 -7.5051 38.0892 -5.52263
lowerback 9.37387 0.899332 3.78207
upperback 3.38125 1.5154 -2.81283
thorax -1.56 0.811515 -5.22029
lowerneck -10.5057 -3.97353 -3.25643
upperneck -3.44014 -4.83148 -0.683109
head 0.730978 -2.3583 0.149174
rclavicle 3.89618e-014 4.13472e-014
rhumerus 43.5186 21.3782 -30.4699
rradius 97.838
rwrist 1.24193
rhand -38.3337 36.3766
rfingers 7.12502
rthumb -11.3611 6.70439
lclavicle 3.89618e-014 4.13472e-014
lhumerus -34.6067 4.50352 83.0803
lradius 39.2075
lwrist 31.3987
lhand -28.5516 15.2251
lfingers 7.12502
lthumb -1.91862 45.1962
rfemur -2.39774 -11.1061 21.2763
rtibia 19.4501
rfoot -15.8377 -26.1565
rtoes 10.1956
lfemur -2.03574 -10.2425 -16.0726
ltibia 25.4209
lfoot -14.9413 10.2414
ltoes -14.6042
1680
root 8.898 17.7708 0.408906 -7.23118 38.1507 -5.49177
lowerback 9.75527 0.896886 3.93232
upperback 3.49504 1.53994 -2.78981
thorax -1.64459 0.82574 -5.29419
lowerneck -11.0174 -3.66825 -3.31296
upperneck -2.50171 -4.3953 -0.452584
head 1.12408 -2.15304 0.228779
rclavicle 1.35969e-013 -2.22639e-014
rhumerus 43.0872 22.5226 -30.9596
rradius 97.7596
rwrist 1.21812
rhand -37.2489 36.817
rfingers 7.12502
rthumb -10.3147 7.08993
lclavicle 1.35969e-013 -2.22639e-014
lhumerus -34.3025 4.29617 83.3273
lradius 39.3139
lwrist 31.5868
lhand -28.6239 14.684
lfingers 7.12502
lthumb -1.98844 44.6545
rfemur -3.24033 -11.2923 21.2833
rtibia 20.2831
rfoot -16.074 -25.9906
rtoes 10.8131
lfemur -2.57949 -10.1555 -16.0351
ltibia 25.5802
lfoot -14.7349 10.0517
ltoes -14.4978
1681
root 8.88357 17.7639 0.373124 -6.76916 38.2127 -5.07062
lowerback 10.2385 0.942364 3.82186
upperback 3.5684 1.60501 -2.85774
thorax -1.82713 0.856101 -5.32403
lowerneck -11.3543 -3.4001 -3.48644
upperneck -1.63518 -4.00524 -0.228315
head 1.47098 -1.96739 0.332859
rclavicle -3.08116e-014 9.54166e-015
rhumerus 42.5037 23.6743 -31.3281
rradius 97.7189
rwrist 1.41346
rhand -36.7879 36.8186
rfingers 7.12502
rthumb -9.87 7.06997
lclavicle -3.08116e-014 9.54166e-015
lhumerus -34.3865 4.07893 83.552
lradius 39.7552
lwrist 31.462
lhand -28.6569 14.9427
lfingers 7.12502
lthumb -2.02035 44.9129
rfemur -3.91722 -11.4695 20.9129
rtibia 20.9651
rfoot -16.2711 -25.7795
rtoes 11.3615
lfemur -3.07923 -10.1979 -16.3933
ltibia 25.8488
lfoot -14.5712 10.1282
ltoes -14.822
